<svg width="193" height="40" viewBox="0 0 193 40" fill="none" xmlns="http://www.w3.org/2000/svg">
<path d="M13.3421 26.1971C13.3367 26.3526 13.334 26.5087 13.334 26.6655C13.334 34.0293 19.3035 39.9988 26.6673 39.9988C34.0311 39.9988 40.0007 34.0293 40.0007 26.6655C40.0007 19.3044 34.0355 13.3363 26.6754 13.332V23.9987C26.6754 25.4715 25.4815 26.6654 24.0087 26.6654H13.3421V26.1971Z" fill="url(#paint0_linear_784_113032)"/>
<path d="M13.3333 0C5.96953 0 0 5.96953 0 13.3333C0 20.6971 5.96953 26.6667 13.3333 26.6667C13.3532 26.6667 13.373 26.6665 13.3929 26.6665H13.3414V15.9999C13.3414 14.5271 14.5353 13.3332 16.0081 13.3332L26.6667 13.3333C26.6667 5.96953 20.6971 0 13.3333 0Z" fill="url(#paint1_linear_784_113032)"/>
<path fill-rule="evenodd" clip-rule="evenodd" d="M0.0078125 13.8008V26.6651C0.0078125 34.0289 5.97734 39.9985 13.3411 39.9985L26.5937 39.9985C19.2634 39.9593 13.3332 34.0048 13.3332 26.6653C6.1263 26.6653 0.254764 20.9475 0.0078125 13.8008ZM26.6744 24.0279L26.6744 23.9985C26.6744 25.4712 25.4805 26.6651 24.0077 26.6651H13.3413V26.6652H24.0079C25.4709 26.6652 26.6587 25.4872 26.6744 24.0279Z" fill="url(#paint2_linear_784_113032)"/>
<mask id="path-4-inside-1_784_113032" fill="white">
<path fill-rule="evenodd" clip-rule="evenodd" d="M62.5502 16.6416V8.12676C62.5502 7.50447 62.0457 7 61.4234 7H58.4607C57.8385 7 57.334 7.50447 57.334 8.12676V32.237C57.334 32.8593 57.8385 33.3638 58.4607 33.3638H61.196C61.8182 33.3638 62.3227 32.8593 62.3227 32.237V31.2176C63.6816 32.8527 65.5659 33.6667 67.9593 33.6667C70.5934 33.6667 72.7502 32.784 74.4187 31.015C76.1121 29.2211 76.9547 26.8916 76.9547 24.0382C76.9547 21.2349 76.1119 18.9189 74.4199 17.1006C72.7531 15.2568 70.647 14.334 68.111 14.334C65.7897 14.334 63.9314 15.101 62.5502 16.6416ZM67.0496 19.0142C65.6671 19.0142 64.5387 19.4934 63.6541 20.4506C62.7682 21.4092 62.3227 22.6146 62.3227 24.0761C62.3227 25.5367 62.7801 26.7148 63.6885 27.6222C64.5993 28.5318 65.7169 28.9865 67.0496 28.9865C68.4342 28.9865 69.5364 28.5311 70.3691 27.626L70.3697 27.6254L70.3703 27.6247C71.2293 26.7177 71.6627 25.5387 71.6627 24.0761C71.6627 22.5368 71.2162 21.3211 70.3336 20.4151L70.3324 20.4139L70.3312 20.4127C69.4717 19.4805 68.3811 19.0142 67.0496 19.0142Z"/>
<path fill-rule="evenodd" clip-rule="evenodd" d="M126.628 8.12676C126.628 7.50447 127.132 7 127.755 7H130.717C131.34 7 131.844 7.50447 131.844 8.12676V32.237C131.844 32.8593 131.34 33.3638 130.717 33.3638H127.982C127.36 33.3638 126.855 32.8593 126.855 32.237V31.2628C125.498 32.8679 123.614 33.6667 121.219 33.6667C118.61 33.6667 116.453 32.7837 114.76 31.0156L114.759 31.015C113.066 29.2211 112.223 26.8916 112.223 24.0382C112.223 21.2352 113.053 18.9192 114.72 17.1007C116.412 15.2571 118.531 14.334 121.067 14.334C123.388 14.334 125.247 15.101 126.628 16.6416V8.12676ZM118.808 20.4139C117.95 21.3198 117.515 22.5359 117.515 24.0761C117.515 25.5387 117.949 26.7177 118.808 27.6247C119.667 28.5315 120.77 28.9865 122.129 28.9865C123.487 28.9865 124.617 28.5314 125.528 27.6222C126.436 26.7148 126.893 25.5367 126.893 24.0761C126.893 22.6156 126.436 21.4107 125.525 20.4519L125.524 20.4506C124.639 19.4934 123.511 19.0142 122.129 19.0142C120.797 19.0142 119.693 19.4806 118.808 20.4139Z"/>
<path fill-rule="evenodd" clip-rule="evenodd" d="M86.9334 14.334C89.2033 14.334 91.0112 15.0996 92.3426 16.6371V15.7637C92.3426 15.1414 92.8471 14.6369 93.4694 14.6369H96.3941C97.0164 14.6369 97.5209 15.1414 97.5209 15.7637V32.237C97.5209 32.8593 97.0164 33.3638 96.3941 33.3638H93.6968C93.0745 33.3638 92.57 32.8593 92.57 32.237V31.2226C91.2599 32.8546 89.4132 33.6667 87.0471 33.6667C84.438 33.6667 82.2817 32.7837 80.5884 31.0156L80.5877 31.0149L80.5871 31.0143C78.9193 29.2203 78.0897 26.891 78.0897 24.0382C78.0897 21.2352 78.9198 18.9191 80.5866 17.1006C82.2786 15.257 84.3971 14.334 86.9334 14.334ZM84.674 20.4139C85.5593 19.4806 86.6633 19.0142 87.9948 19.0142C89.2991 19.0142 90.3771 19.4917 91.2375 20.4493C92.0987 21.4078 92.5321 22.6136 92.5321 24.0761C92.5321 25.5377 92.0867 26.7163 91.203 27.6234C90.317 28.5329 89.2375 28.9865 87.9569 28.9865C86.5983 28.9865 85.495 28.5315 84.6362 27.6247C83.7772 26.7177 83.3438 25.5387 83.3438 24.0761C83.3438 22.5368 83.7903 21.3211 84.6729 20.4151L84.674 20.4139Z"/>
<path d="M105.738 17.1591V15.7637C105.738 15.1414 105.234 14.6369 104.612 14.6369H101.649C101.027 14.6369 100.522 15.1414 100.522 15.7637V32.237C100.522 32.8593 101.027 33.3638 101.649 33.3638H104.612C105.234 33.3638 105.738 32.8593 105.738 32.237V24.644C105.738 23.2569 106.147 22.141 106.955 21.2845L106.956 21.2832C107.762 20.4057 108.888 19.9608 110.351 19.9608C110.422 19.9608 110.492 19.961 110.559 19.9615C111.207 19.9658 111.765 19.4493 111.765 18.792V14.88C111.765 14.7377 111.722 14.602 111.634 14.4999C111.544 14.3959 111.414 14.334 111.261 14.334C109.017 14.334 107.174 15.2801 105.738 17.1591Z"/>
<path d="M179.795 15.7637V16.8994C181.317 15.1895 183.275 14.334 185.66 14.334C187.933 14.334 189.66 14.9919 190.815 16.3272C191.967 17.659 192.532 19.6437 192.532 22.2587V32.237C192.532 32.8593 192.028 33.3638 191.405 33.3638H188.443C187.82 33.3638 187.316 32.8593 187.316 32.237V23.5082C187.316 21.8237 187.025 20.6764 186.474 20.0304L186.473 20.0296L186.473 20.0287C185.922 19.3596 185.067 19.0142 183.878 19.0142C182.621 19.0142 181.634 19.4432 180.902 20.2957L180.902 20.2964L180.901 20.2971C180.17 21.1245 179.795 22.3273 179.795 23.9246V32.237C179.795 32.8593 179.291 33.3638 178.669 33.3638H175.706C175.084 33.3638 174.579 32.8593 174.579 32.237V15.7637C174.579 15.1414 175.084 14.6369 175.706 14.6369H178.669C179.291 14.6369 179.795 15.1414 179.795 15.7637Z"/>
<path fill-rule="evenodd" clip-rule="evenodd" d="M152.28 25.119C152.203 25.6018 151.77 25.9333 151.281 25.9333H138.658C139.267 27.873 140.876 29.2667 143.067 29.2667C145.259 29.2667 146.334 28.9365 147.639 27.9712C147.679 27.9415 147.719 27.912 147.758 27.8829C148.642 27.2238 149.285 26.7445 150.629 28.5051C151.91 30.1817 151.321 30.6305 150.414 31.3227L150.362 31.3621C148.033 33.1407 146.534 33.6646 142.934 33.6667V33.6646C137.761 33.5581 133.601 29.865 133.601 23.8667C133.601 18.6258 137.83 14.3727 143.061 14.3336C143.133 14.3339 143.205 14.3345 143.276 14.3353L143.404 14.3371C148.544 14.4803 152.401 18.6921 152.401 23.8667C152.401 24.1092 152.392 24.1931 152.374 24.3581C152.368 24.4083 152.362 24.466 152.355 24.538C152.336 24.7335 152.311 24.9272 152.28 25.119ZM143.067 18.7333C140.878 18.7333 139.146 19.9887 138.571 22.2L147.563 22.0667C147.122 20.122 145.79 18.7333 143.067 18.7333Z"/>
<path fill-rule="evenodd" clip-rule="evenodd" d="M171.415 25.9333C171.904 25.9333 172.336 25.6018 172.414 25.119C172.444 24.9272 172.469 24.7335 172.488 24.538C172.495 24.466 172.502 24.4083 172.507 24.3581C172.525 24.1931 172.534 24.1092 172.534 23.8667C172.534 18.6921 168.678 14.4803 163.538 14.3371L163.409 14.3353C163.338 14.3345 163.266 14.3339 163.195 14.3336C157.963 14.3727 153.734 18.6258 153.734 23.8667C153.734 29.865 157.894 33.5581 163.067 33.6646V33.6667C166.667 33.6646 168.166 33.1407 170.495 31.3621L170.547 31.3227C171.455 30.6305 172.043 30.1817 170.763 28.5051C169.418 26.7445 168.775 27.2238 167.891 27.8829C167.852 27.912 167.812 27.9415 167.772 27.9712C166.467 28.9365 165.392 29.2667 163.201 29.2667C161.009 29.2667 159.401 27.873 158.791 25.9333H171.415ZM158.705 22.2C159.279 19.9887 161.011 18.7333 163.201 18.7333C165.923 18.7333 167.255 20.122 167.696 22.0667L158.705 22.2Z"/>
</mask>
<path fill-rule="evenodd" clip-rule="evenodd" d="M62.5502 16.6416V8.12676C62.5502 7.50447 62.0457 7 61.4234 7H58.4607C57.8385 7 57.334 7.50447 57.334 8.12676V32.237C57.334 32.8593 57.8385 33.3638 58.4607 33.3638H61.196C61.8182 33.3638 62.3227 32.8593 62.3227 32.237V31.2176C63.6816 32.8527 65.5659 33.6667 67.9593 33.6667C70.5934 33.6667 72.7502 32.784 74.4187 31.015C76.1121 29.2211 76.9547 26.8916 76.9547 24.0382C76.9547 21.2349 76.1119 18.9189 74.4199 17.1006C72.7531 15.2568 70.647 14.334 68.111 14.334C65.7897 14.334 63.9314 15.101 62.5502 16.6416ZM67.0496 19.0142C65.6671 19.0142 64.5387 19.4934 63.6541 20.4506C62.7682 21.4092 62.3227 22.6146 62.3227 24.0761C62.3227 25.5367 62.7801 26.7148 63.6885 27.6222C64.5993 28.5318 65.7169 28.9865 67.0496 28.9865C68.4342 28.9865 69.5364 28.5311 70.3691 27.626L70.3697 27.6254L70.3703 27.6247C71.2293 26.7177 71.6627 25.5387 71.6627 24.0761C71.6627 22.5368 71.2162 21.3211 70.3336 20.4151L70.3324 20.4139L70.3312 20.4127C69.4717 19.4805 68.3811 19.0142 67.0496 19.0142Z" fill="white"/>
<path fill-rule="evenodd" clip-rule="evenodd" d="M126.628 8.12676C126.628 7.50447 127.132 7 127.755 7H130.717C131.34 7 131.844 7.50447 131.844 8.12676V32.237C131.844 32.8593 131.34 33.3638 130.717 33.3638H127.982C127.36 33.3638 126.855 32.8593 126.855 32.237V31.2628C125.498 32.8679 123.614 33.6667 121.219 33.6667C118.61 33.6667 116.453 32.7837 114.76 31.0156L114.759 31.015C113.066 29.2211 112.223 26.8916 112.223 24.0382C112.223 21.2352 113.053 18.9192 114.72 17.1007C116.412 15.2571 118.531 14.334 121.067 14.334C123.388 14.334 125.247 15.101 126.628 16.6416V8.12676ZM118.808 20.4139C117.95 21.3198 117.515 22.5359 117.515 24.0761C117.515 25.5387 117.949 26.7177 118.808 27.6247C119.667 28.5315 120.77 28.9865 122.129 28.9865C123.487 28.9865 124.617 28.5314 125.528 27.6222C126.436 26.7148 126.893 25.5367 126.893 24.0761C126.893 22.6156 126.436 21.4107 125.525 20.4519L125.524 20.4506C124.639 19.4934 123.511 19.0142 122.129 19.0142C120.797 19.0142 119.693 19.4806 118.808 20.4139Z" fill="white"/>
<path fill-rule="evenodd" clip-rule="evenodd" d="M86.9334 14.334C89.2033 14.334 91.0112 15.0996 92.3426 16.6371V15.7637C92.3426 15.1414 92.8471 14.6369 93.4694 14.6369H96.3941C97.0164 14.6369 97.5209 15.1414 97.5209 15.7637V32.237C97.5209 32.8593 97.0164 33.3638 96.3941 33.3638H93.6968C93.0745 33.3638 92.57 32.8593 92.57 32.237V31.2226C91.2599 32.8546 89.4132 33.6667 87.0471 33.6667C84.438 33.6667 82.2817 32.7837 80.5884 31.0156L80.5877 31.0149L80.5871 31.0143C78.9193 29.2203 78.0897 26.891 78.0897 24.0382C78.0897 21.2352 78.9198 18.9191 80.5866 17.1006C82.2786 15.257 84.3971 14.334 86.9334 14.334ZM84.674 20.4139C85.5593 19.4806 86.6633 19.0142 87.9948 19.0142C89.2991 19.0142 90.3771 19.4917 91.2375 20.4493C92.0987 21.4078 92.5321 22.6136 92.5321 24.0761C92.5321 25.5377 92.0867 26.7163 91.203 27.6234C90.317 28.5329 89.2375 28.9865 87.9569 28.9865C86.5983 28.9865 85.495 28.5315 84.6362 27.6247C83.7772 26.7177 83.3438 25.5387 83.3438 24.0761C83.3438 22.5368 83.7903 21.3211 84.6729 20.4151L84.674 20.4139Z" fill="white"/>
<path d="M105.738 17.1591V15.7637C105.738 15.1414 105.234 14.6369 104.612 14.6369H101.649C101.027 14.6369 100.522 15.1414 100.522 15.7637V32.237C100.522 32.8593 101.027 33.3638 101.649 33.3638H104.612C105.234 33.3638 105.738 32.8593 105.738 32.237V24.644C105.738 23.2569 106.147 22.141 106.955 21.2845L106.956 21.2832C107.762 20.4057 108.888 19.9608 110.351 19.9608C110.422 19.9608 110.492 19.961 110.559 19.9615C111.207 19.9658 111.765 19.4493 111.765 18.792V14.88C111.765 14.7377 111.722 14.602 111.634 14.4999C111.544 14.3959 111.414 14.334 111.261 14.334C109.017 14.334 107.174 15.2801 105.738 17.1591Z" fill="white"/>
<path d="M179.795 15.7637V16.8994C181.317 15.1895 183.275 14.334 185.66 14.334C187.933 14.334 189.66 14.9919 190.815 16.3272C191.967 17.659 192.532 19.6437 192.532 22.2587V32.237C192.532 32.8593 192.028 33.3638 191.405 33.3638H188.443C187.82 33.3638 187.316 32.8593 187.316 32.237V23.5082C187.316 21.8237 187.025 20.6764 186.474 20.0304L186.473 20.0296L186.473 20.0287C185.922 19.3596 185.067 19.0142 183.878 19.0142C182.621 19.0142 181.634 19.4432 180.902 20.2957L180.902 20.2964L180.901 20.2971C180.17 21.1245 179.795 22.3273 179.795 23.9246V32.237C179.795 32.8593 179.291 33.3638 178.669 33.3638H175.706C175.084 33.3638 174.579 32.8593 174.579 32.237V15.7637C174.579 15.1414 175.084 14.6369 175.706 14.6369H178.669C179.291 14.6369 179.795 15.1414 179.795 15.7637Z" fill="white"/>
<path fill-rule="evenodd" clip-rule="evenodd" d="M152.28 25.119C152.203 25.6018 151.77 25.9333 151.281 25.9333H138.658C139.267 27.873 140.876 29.2667 143.067 29.2667C145.259 29.2667 146.334 28.9365 147.639 27.9712C147.679 27.9415 147.719 27.912 147.758 27.8829C148.642 27.2238 149.285 26.7445 150.629 28.5051C151.91 30.1817 151.321 30.6305 150.414 31.3227L150.362 31.3621C148.033 33.1407 146.534 33.6646 142.934 33.6667V33.6646C137.761 33.5581 133.601 29.865 133.601 23.8667C133.601 18.6258 137.83 14.3727 143.061 14.3336C143.133 14.3339 143.205 14.3345 143.276 14.3353L143.404 14.3371C148.544 14.4803 152.401 18.6921 152.401 23.8667C152.401 24.1092 152.392 24.1931 152.374 24.3581C152.368 24.4083 152.362 24.466 152.355 24.538C152.336 24.7335 152.311 24.9272 152.28 25.119ZM143.067 18.7333C140.878 18.7333 139.146 19.9887 138.571 22.2L147.563 22.0667C147.122 20.122 145.79 18.7333 143.067 18.7333Z" fill="white"/>
<path fill-rule="evenodd" clip-rule="evenodd" d="M171.415 25.9333C171.904 25.9333 172.336 25.6018 172.414 25.119C172.444 24.9272 172.469 24.7335 172.488 24.538C172.495 24.466 172.502 24.4083 172.507 24.3581C172.525 24.1931 172.534 24.1092 172.534 23.8667C172.534 18.6921 168.678 14.4803 163.538 14.3371L163.409 14.3353C163.338 14.3345 163.266 14.3339 163.195 14.3336C157.963 14.3727 153.734 18.6258 153.734 23.8667C153.734 29.865 157.894 33.5581 163.067 33.6646V33.6667C166.667 33.6646 168.166 33.1407 170.495 31.3621L170.547 31.3227C171.455 30.6305 172.043 30.1817 170.763 28.5051C169.418 26.7445 168.775 27.2238 167.891 27.8829C167.852 27.912 167.812 27.9415 167.772 27.9712C166.467 28.9365 165.392 29.2667 163.201 29.2667C161.009 29.2667 159.401 27.873 158.791 25.9333H171.415ZM158.705 22.2C159.279 19.9887 161.011 18.7333 163.201 18.7333C165.923 18.7333 167.255 20.122 167.696 22.0667L158.705 22.2Z" fill="white"/>
<path fill-rule="evenodd" clip-rule="evenodd" d="M62.5502 16.6416V8.12676C62.5502 7.50447 62.0457 7 61.4234 7H58.4607C57.8385 7 57.334 7.50447 57.334 8.12676V32.237C57.334 32.8593 57.8385 33.3638 58.4607 33.3638H61.196C61.8182 33.3638 62.3227 32.8593 62.3227 32.237V31.2176C63.6816 32.8527 65.5659 33.6667 67.9593 33.6667C70.5934 33.6667 72.7502 32.784 74.4187 31.015C76.1121 29.2211 76.9547 26.8916 76.9547 24.0382C76.9547 21.2349 76.1119 18.9189 74.4199 17.1006C72.7531 15.2568 70.647 14.334 68.111 14.334C65.7897 14.334 63.9314 15.101 62.5502 16.6416ZM67.0496 19.0142C65.6671 19.0142 64.5387 19.4934 63.6541 20.4506C62.7682 21.4092 62.3227 22.6146 62.3227 24.0761C62.3227 25.5367 62.7801 26.7148 63.6885 27.6222C64.5993 28.5318 65.7169 28.9865 67.0496 28.9865C68.4342 28.9865 69.5364 28.5311 70.3691 27.626L70.3697 27.6254L70.3703 27.6247C71.2293 26.7177 71.6627 25.5387 71.6627 24.0761C71.6627 22.5368 71.2162 21.3211 70.3336 20.4151L70.3324 20.4139L70.3312 20.4127C69.4717 19.4805 68.3811 19.0142 67.0496 19.0142Z" stroke="#6E5FC9" stroke-width="0.4" mask="url(#path-4-inside-1_784_113032)"/>
<path fill-rule="evenodd" clip-rule="evenodd" d="M126.628 8.12676C126.628 7.50447 127.132 7 127.755 7H130.717C131.34 7 131.844 7.50447 131.844 8.12676V32.237C131.844 32.8593 131.34 33.3638 130.717 33.3638H127.982C127.36 33.3638 126.855 32.8593 126.855 32.237V31.2628C125.498 32.8679 123.614 33.6667 121.219 33.6667C118.61 33.6667 116.453 32.7837 114.76 31.0156L114.759 31.015C113.066 29.2211 112.223 26.8916 112.223 24.0382C112.223 21.2352 113.053 18.9192 114.72 17.1007C116.412 15.2571 118.531 14.334 121.067 14.334C123.388 14.334 125.247 15.101 126.628 16.6416V8.12676ZM118.808 20.4139C117.95 21.3198 117.515 22.5359 117.515 24.0761C117.515 25.5387 117.949 26.7177 118.808 27.6247C119.667 28.5315 120.77 28.9865 122.129 28.9865C123.487 28.9865 124.617 28.5314 125.528 27.6222C126.436 26.7148 126.893 25.5367 126.893 24.0761C126.893 22.6156 126.436 21.4107 125.525 20.4519L125.524 20.4506C124.639 19.4934 123.511 19.0142 122.129 19.0142C120.797 19.0142 119.693 19.4806 118.808 20.4139Z" stroke="#6E5FC9" stroke-width="0.4" mask="url(#path-4-inside-1_784_113032)"/>
<path fill-rule="evenodd" clip-rule="evenodd" d="M86.9334 14.334C89.2033 14.334 91.0112 15.0996 92.3426 16.6371V15.7637C92.3426 15.1414 92.8471 14.6369 93.4694 14.6369H96.3941C97.0164 14.6369 97.5209 15.1414 97.5209 15.7637V32.237C97.5209 32.8593 97.0164 33.3638 96.3941 33.3638H93.6968C93.0745 33.3638 92.57 32.8593 92.57 32.237V31.2226C91.2599 32.8546 89.4132 33.6667 87.0471 33.6667C84.438 33.6667 82.2817 32.7837 80.5884 31.0156L80.5877 31.0149L80.5871 31.0143C78.9193 29.2203 78.0897 26.891 78.0897 24.0382C78.0897 21.2352 78.9198 18.9191 80.5866 17.1006C82.2786 15.257 84.3971 14.334 86.9334 14.334ZM84.674 20.4139C85.5593 19.4806 86.6633 19.0142 87.9948 19.0142C89.2991 19.0142 90.3771 19.4917 91.2375 20.4493C92.0987 21.4078 92.5321 22.6136 92.5321 24.0761C92.5321 25.5377 92.0867 26.7163 91.203 27.6234C90.317 28.5329 89.2375 28.9865 87.9569 28.9865C86.5983 28.9865 85.495 28.5315 84.6362 27.6247C83.7772 26.7177 83.3438 25.5387 83.3438 24.0761C83.3438 22.5368 83.7903 21.3211 84.6729 20.4151L84.674 20.4139Z" stroke="#6E5FC9" stroke-width="0.4" mask="url(#path-4-inside-1_784_113032)"/>
<path d="M105.738 17.1591V15.7637C105.738 15.1414 105.234 14.6369 104.612 14.6369H101.649C101.027 14.6369 100.522 15.1414 100.522 15.7637V32.237C100.522 32.8593 101.027 33.3638 101.649 33.3638H104.612C105.234 33.3638 105.738 32.8593 105.738 32.237V24.644C105.738 23.2569 106.147 22.141 106.955 21.2845L106.956 21.2832C107.762 20.4057 108.888 19.9608 110.351 19.9608C110.422 19.9608 110.492 19.961 110.559 19.9615C111.207 19.9658 111.765 19.4493 111.765 18.792V14.88C111.765 14.7377 111.722 14.602 111.634 14.4999C111.544 14.3959 111.414 14.334 111.261 14.334C109.017 14.334 107.174 15.2801 105.738 17.1591Z" stroke="#6E5FC9" stroke-width="0.4" mask="url(#path-4-inside-1_784_113032)"/>
<path d="M179.795 15.7637V16.8994C181.317 15.1895 183.275 14.334 185.66 14.334C187.933 14.334 189.66 14.9919 190.815 16.3272C191.967 17.659 192.532 19.6437 192.532 22.2587V32.237C192.532 32.8593 192.028 33.3638 191.405 33.3638H188.443C187.82 33.3638 187.316 32.8593 187.316 32.237V23.5082C187.316 21.8237 187.025 20.6764 186.474 20.0304L186.473 20.0296L186.473 20.0287C185.922 19.3596 185.067 19.0142 183.878 19.0142C182.621 19.0142 181.634 19.4432 180.902 20.2957L180.902 20.2964L180.901 20.2971C180.17 21.1245 179.795 22.3273 179.795 23.9246V32.237C179.795 32.8593 179.291 33.3638 178.669 33.3638H175.706C175.084 33.3638 174.579 32.8593 174.579 32.237V15.7637C174.579 15.1414 175.084 14.6369 175.706 14.6369H178.669C179.291 14.6369 179.795 15.1414 179.795 15.7637Z" stroke="#6E5FC9" stroke-width="0.4" mask="url(#path-4-inside-1_784_113032)"/>
<path fill-rule="evenodd" clip-rule="evenodd" d="M152.28 25.119C152.203 25.6018 151.77 25.9333 151.281 25.9333H138.658C139.267 27.873 140.876 29.2667 143.067 29.2667C145.259 29.2667 146.334 28.9365 147.639 27.9712C147.679 27.9415 147.719 27.912 147.758 27.8829C148.642 27.2238 149.285 26.7445 150.629 28.5051C151.91 30.1817 151.321 30.6305 150.414 31.3227L150.362 31.3621C148.033 33.1407 146.534 33.6646 142.934 33.6667V33.6646C137.761 33.5581 133.601 29.865 133.601 23.8667C133.601 18.6258 137.83 14.3727 143.061 14.3336C143.133 14.3339 143.205 14.3345 143.276 14.3353L143.404 14.3371C148.544 14.4803 152.401 18.6921 152.401 23.8667C152.401 24.1092 152.392 24.1931 152.374 24.3581C152.368 24.4083 152.362 24.466 152.355 24.538C152.336 24.7335 152.311 24.9272 152.28 25.119ZM143.067 18.7333C140.878 18.7333 139.146 19.9887 138.571 22.2L147.563 22.0667C147.122 20.122 145.79 18.7333 143.067 18.7333Z" stroke="#6E5FC9" stroke-width="0.4" mask="url(#path-4-inside-1_784_113032)"/>
<path fill-rule="evenodd" clip-rule="evenodd" d="M171.415 25.9333C171.904 25.9333 172.336 25.6018 172.414 25.119C172.444 24.9272 172.469 24.7335 172.488 24.538C172.495 24.466 172.502 24.4083 172.507 24.3581C172.525 24.1931 172.534 24.1092 172.534 23.8667C172.534 18.6921 168.678 14.4803 163.538 14.3371L163.409 14.3353C163.338 14.3345 163.266 14.3339 163.195 14.3336C157.963 14.3727 153.734 18.6258 153.734 23.8667C153.734 29.865 157.894 33.5581 163.067 33.6646V33.6667C166.667 33.6646 168.166 33.1407 170.495 31.3621L170.547 31.3227C171.455 30.6305 172.043 30.1817 170.763 28.5051C169.418 26.7445 168.775 27.2238 167.891 27.8829C167.852 27.912 167.812 27.9415 167.772 27.9712C166.467 28.9365 165.392 29.2667 163.201 29.2667C161.009 29.2667 159.401 27.873 158.791 25.9333H171.415ZM158.705 22.2C159.279 19.9887 161.011 18.7333 163.201 18.7333C165.923 18.7333 167.255 20.122 167.696 22.0667L158.705 22.2Z" stroke="#6E5FC9" stroke-width="0.4" mask="url(#path-4-inside-1_784_113032)"/>
<defs>
<linearGradient id="paint0_linear_784_113032" x1="26.6673" y1="13.3322" x2="26.6673" y2="39.9988" gradientUnits="userSpaceOnUse">
<stop stop-color="#E2DFF5"/>
<stop offset="0.723958" stop-color="white"/>
</linearGradient>
<linearGradient id="paint1_linear_784_113032" x1="13.3333" y1="0" x2="13.3333" y2="26.6667" gradientUnits="userSpaceOnUse">
<stop stop-color="#FFA09D"/>
<stop offset="0.755208" stop-color="#FF807B"/>
</linearGradient>
<linearGradient id="paint2_linear_784_113032" x1="13.3411" y1="13.3323" x2="13.3411" y2="39.9985" gradientUnits="userSpaceOnUse">
<stop stop-color="#EECD5E"/>
<stop offset="1" stop-color="#F5A25D"/>
</linearGradient>
</defs>
</svg>
