<svg width="59" height="59" viewBox="0 0 59 59" fill="none" xmlns="http://www.w3.org/2000/svg">
<circle cx="29.204" cy="29.4736" r="29.2011" fill="#1C84FF"/>
<path d="M41.371 35.4601V39.1102C41.3723 39.4491 41.3029 39.7845 41.1672 40.095C41.0314 40.4055 40.8323 40.6842 40.5826 40.9133C40.3329 41.1423 40.0382 41.3167 39.7172 41.4253C39.3962 41.5339 39.056 41.5742 38.7185 41.5437C34.9745 41.1369 31.3781 39.8575 28.2183 37.8084C25.2785 35.9403 22.7861 33.4479 20.918 30.5081C18.8618 27.3339 17.5821 23.72 17.1827 19.9592C17.1523 19.6227 17.1923 19.2836 17.3001 18.9635C17.408 18.6433 17.5813 18.3491 17.809 18.0996C18.0368 17.8501 18.314 17.6507 18.6231 17.5142C18.9321 17.3777 19.2662 17.3071 19.604 17.3068H23.2541C23.8446 17.3009 24.417 17.51 24.8648 17.8951C25.3125 18.2801 25.6049 18.8148 25.6875 19.3995C25.8416 20.5676 26.1273 21.7146 26.5392 22.8185C26.7029 23.254 26.7384 23.7272 26.6413 24.1823C26.5443 24.6373 26.3189 25.0549 25.9917 25.3857L24.4465 26.931C26.1786 29.9771 28.7007 32.4992 31.7468 34.2312L33.292 32.686C33.6228 32.3589 34.0405 32.1334 34.4955 32.0364C34.9505 31.9394 35.4238 31.9748 35.8593 32.1385C36.9632 32.5504 38.1101 32.8361 39.2782 32.9902C39.8693 33.0736 40.409 33.3713 40.7949 33.8267C41.1808 34.2821 41.3858 34.8634 41.371 35.4601Z" stroke="white" stroke-width="2.92011" stroke-linecap="round" stroke-linejoin="round"/>
</svg>
