<svg width="59" height="59" viewBox="0 0 59 59" fill="none" xmlns="http://www.w3.org/2000/svg">
<circle cx="29.204" cy="29.2372" r="29.2011" fill="#1C84FF"/>
<path d="M23.1197 39.9446H19.4696C18.8242 39.9446 18.2052 39.6882 17.7489 39.2319C17.2925 38.7755 17.0361 38.1566 17.0361 37.5112V28.9942C17.0361 28.3488 17.2925 27.7299 17.7489 27.2735C18.2052 26.8171 18.8242 26.5608 19.4696 26.5608H23.1197M31.6367 24.1273V19.2605C31.6367 18.2924 31.2521 17.364 30.5676 16.6795C29.8831 15.9949 28.9546 15.6104 27.9865 15.6104L23.1197 26.5608V39.9446H36.8442C37.4311 39.9512 38.0006 39.7456 38.4477 39.3655C38.8949 38.9854 39.1896 38.4564 39.2776 37.8762L40.9567 26.9258C41.0096 26.577 40.9861 26.2209 40.8878 25.8821C40.7894 25.5434 40.6186 25.23 40.3871 24.9638C40.1556 24.6977 39.8691 24.485 39.5472 24.3405C39.2254 24.1961 38.876 24.1233 38.5233 24.1273H31.6367Z" stroke="white" stroke-width="2.92011" stroke-linecap="round" stroke-linejoin="round"/>
</svg>
