<svg width="124" height="41" viewBox="0 0 124 41" fill="none" xmlns="http://www.w3.org/2000/svg">
<path d="M6.0141 27.8237V13.2717H11.368C12.428 13.2717 13.3773 13.4562 14.216 13.8252C15.0546 14.1875 15.7155 14.7242 16.1985 15.4354C16.6883 16.1465 16.9332 17.0154 16.9332 18.0419C16.9332 19.008 16.7185 19.8332 16.2891 20.5175C15.8597 21.2018 15.2559 21.7252 14.4776 22.0874C13.7061 22.4497 12.797 22.6309 11.7504 22.6309H8.97282V27.8237H6.0141ZM8.94263 20.3565H11.6699C12.4079 20.3565 13.0117 20.1217 13.4813 19.652C13.951 19.1757 14.1858 18.5886 14.1858 17.8909C14.1858 17.1663 13.9376 16.5927 13.4411 16.17C12.9446 15.7406 12.3408 15.5259 11.6296 15.5259H8.94263V20.3565ZM18.3691 27.8237V17.4179H21.197V19.8835C21.3647 19.3535 21.5996 18.8906 21.9015 18.4947C22.2101 18.0922 22.5824 17.7802 23.0185 17.5588C23.4546 17.3307 23.9477 17.2166 24.4979 17.2166C24.5918 17.2166 24.679 17.2233 24.7596 17.2368C24.8468 17.2435 24.9105 17.2569 24.9508 17.277V20.0747C24.8904 20.0479 24.8166 20.0311 24.7294 20.0244C24.6489 20.0177 24.5751 20.011 24.508 20.0043C23.931 19.9573 23.4379 19.9741 23.0286 20.0546C22.6193 20.1351 22.2872 20.2726 22.0323 20.4672C21.7774 20.6618 21.5929 20.8999 21.4788 21.1817C21.3647 21.4635 21.3077 21.7788 21.3077 22.1277V27.8237H18.3691ZM30.5723 28.025C29.5525 28.025 28.6635 27.807 27.9054 27.3709C27.154 26.9348 26.5703 26.3175 26.1543 25.5192C25.7451 24.7208 25.5404 23.7748 25.5404 22.6812C25.5404 21.5876 25.7451 20.6316 26.1543 19.8131C26.5703 18.9945 27.154 18.3572 27.9054 17.901C28.6635 17.4447 29.5558 17.2166 30.5823 17.2166C31.6088 17.2166 32.4978 17.4414 33.2492 17.8909C34.0006 18.3337 34.5809 18.9644 34.9902 19.7829C35.3995 20.6014 35.6041 21.5675 35.6041 22.6812C35.6041 23.7278 35.4028 24.6537 35.0003 25.4588C34.6044 26.2572 34.0308 26.8845 33.2794 27.3407C32.5347 27.7969 31.6323 28.025 30.5723 28.025ZM30.5823 25.8412C31.0989 25.8412 31.5149 25.6902 31.8302 25.3883C32.1455 25.0864 32.3737 24.6906 32.5145 24.2008C32.6621 23.7043 32.7359 23.1643 32.7359 22.5806C32.7359 22.0304 32.6689 21.5105 32.5347 21.0207C32.4072 20.5309 32.1858 20.1351 31.8705 19.8332C31.5551 19.5313 31.1258 19.3803 30.5823 19.3803C30.0657 19.3803 29.6464 19.5246 29.3244 19.8131C29.009 20.0948 28.7776 20.4806 28.63 20.9704C28.4824 21.4534 28.4086 21.9902 28.4086 22.5806C28.4086 23.124 28.4757 23.6473 28.6098 24.1505C28.744 24.647 28.9688 25.0529 29.2841 25.3682C29.5994 25.6835 30.0322 25.8412 30.5823 25.8412ZM41.8436 31.2655C39.9918 31.2655 38.5829 31.0307 37.6168 30.561C36.6574 30.0914 36.1777 29.4742 36.1777 28.7093C36.1777 28.3537 36.2716 28.0552 36.4595 27.8137C36.6473 27.5721 36.8654 27.3809 37.1136 27.24C37.3686 27.0924 37.6 26.9817 37.808 26.9079C38.0227 26.8274 38.1535 26.7738 38.2005 26.7469C38.0932 26.6865 37.9389 26.5993 37.7376 26.4853C37.5363 26.3645 37.3485 26.2035 37.174 26.0022C37.0063 25.7942 36.9224 25.5259 36.9224 25.1971C36.9224 24.8281 37.0969 24.486 37.4457 24.1706C37.8013 23.8553 38.338 23.6372 39.0559 23.5165C38.3716 23.1944 37.8516 22.7584 37.4961 22.2082C37.1405 21.6581 36.9627 21.0945 36.9627 20.5175C36.9627 19.8332 37.1774 19.2461 37.6068 18.7564C38.0361 18.2666 38.6198 17.8943 39.3578 17.6393C40.1025 17.3844 40.9445 17.2569 41.8838 17.2569C42.6017 17.2569 43.1887 17.334 43.6449 17.4884C44.1012 17.636 44.5238 17.8305 44.913 18.072C45.0673 18.0117 45.2719 17.9345 45.5268 17.8406C45.7818 17.7399 46.0569 17.6326 46.3521 17.5185C46.6473 17.3978 46.9358 17.2804 47.2175 17.1663C47.4993 17.0456 47.7509 16.9382 47.9723 16.8443L47.9623 19.1187L46.1609 19.4105C46.2347 19.5917 46.2917 19.7862 46.3319 19.9942C46.3722 20.2022 46.3923 20.3733 46.3923 20.5075C46.3923 21.1113 46.2145 21.6748 45.859 22.1981C45.5101 22.7215 44.9834 23.1441 44.279 23.4662C43.5812 23.7882 42.7157 23.9492 41.6825 23.9492C41.5551 23.9492 41.384 23.9459 41.1693 23.9392C40.9613 23.9324 40.7902 23.9224 40.656 23.909C40.2602 23.9291 39.9885 23.9794 39.8409 24.0599C39.6933 24.1404 39.6195 24.2344 39.6195 24.3417C39.6195 24.5027 39.7704 24.6101 40.0723 24.6637C40.3743 24.7107 40.8305 24.7543 41.441 24.7946C41.6557 24.808 41.9543 24.8248 42.3367 24.8449C42.7191 24.865 43.1418 24.8919 43.6047 24.9254C44.8794 25.0126 45.8288 25.3279 46.4527 25.8714C47.0834 26.4081 47.3987 27.0857 47.3987 27.9042C47.3987 28.8771 46.9358 29.6788 46.0099 30.3095C45.0908 30.9468 43.702 31.2655 41.8436 31.2655ZM42.3165 29.6251C43.1351 29.6251 43.7187 29.5245 44.0676 29.3232C44.4165 29.1219 44.5909 28.8335 44.5909 28.4577C44.5909 28.1424 44.4567 27.8875 44.1884 27.6929C43.92 27.4916 43.5275 27.3742 43.0109 27.3407L40.6258 27.1797C40.3172 27.1662 40.0422 27.2132 39.8006 27.3205C39.5658 27.4279 39.3813 27.5755 39.2471 27.7633C39.1197 27.9512 39.0559 28.1525 39.0559 28.3672C39.0559 28.8033 39.3209 29.1219 39.8509 29.3232C40.381 29.5245 41.2028 29.6251 42.3165 29.6251ZM41.763 22.3088C42.3199 22.3088 42.7661 22.1579 43.1015 21.856C43.4437 21.5474 43.6148 21.1314 43.6148 20.6081C43.6148 20.0647 43.4437 19.6286 43.1015 19.2998C42.7661 18.9711 42.3199 18.8067 41.763 18.8067C41.2129 18.8067 40.7634 18.9711 40.4145 19.2998C40.0723 19.6286 39.9013 20.0647 39.9013 20.6081C39.9013 21.1247 40.0656 21.5373 40.3944 21.8459C40.7298 22.1545 41.1861 22.3088 41.763 22.3088ZM48.9974 27.8237V24.6235H52.2178V27.8237H48.9974ZM54.0684 27.8237L59.2814 13.2717H62.381L67.5839 27.8237H64.6553L63.4678 24.4524H58.2347L57.017 27.8237H54.0684ZM58.8889 21.8862H62.7634L60.8412 16.1096L58.8889 21.8862ZM69.3664 13.2717H72.2949V27.8237H69.3664V13.2717Z" fill="white"/>
<path d="M81.0361 22.4125V18.2157L98.0579 10.8237V15.6524L86.4038 20.2664L86.561 20.016V20.6122L86.4038 20.3618L98.0579 24.9758V29.8044L81.0361 22.4125Z" fill="white"/>
<path d="M120.516 22.4125L103.494 29.8044V24.9758L115.148 20.3618L114.991 20.6122V20.016L115.148 20.2664L103.494 15.6524V10.8237L120.516 18.2157V22.4125Z" fill="white"/>
</svg>
