<svg version="1.1" id="Layer_1" xmlns="http://www.w3.org/2000/svg" xmlns:xlink="http://www.w3.org/1999/xlink" x="0" y="0" viewBox="0 0 485.3 75" style="enable-background:new 0 0 485.3 75" xml:space="preserve"><style>.st0{fill:#fff}.st1{fill:#008efe}</style><g id="XMLID_25_"><path id="XMLID_74_" class="st0" d="M91.5 19h4.2l13.4 20 13.3-20h4.2v36.7h-4.1V26l-13.4 19.6h-.2L95.6 26v29.7h-4.1z"/><path id="XMLID_73_" class="st0" d="M146.9 40.3V19h4.1v21.1c0 8 4.1 12.4 11.2 12.4 6.8 0 11-4.1 11-12.1V19h4.1v21c0 10.7-6.1 16.2-15.3 16.2-8.9 0-15.1-5.5-15.1-15.9"/><path id="XMLID_72_" class="st0" d="M207.3 22.8h-12.4V19h28.9v3.8h-12.4v32.9h-4.1z"/><path id="XMLID_69_" class="st0" d="M250.9 18.7h3.9l16.7 36.9H267l-4.3-9.7h-20l-4.3 9.7h-4.2l16.7-36.9zm10.2 23.6-8.3-18.7-8.4 18.7h16.7z"/><path id="XMLID_65_" class="st0" d="M289.2 19h15.6c4.2 0 7.5 1.2 9.6 3.2 1.6 1.6 2.4 3.6 2.4 5.9v.1c0 4.8-2.9 7.2-5.8 8.5 4.3 1.3 7.9 3.9 7.9 8.9v.1c0 6.3-5.3 10-13.3 10h-16.3V19zm23.3 9.7c0-3.6-2.9-6-8.1-6h-11.2v12.6H304c5 0 8.4-2.2 8.4-6.5v-.1zm2.1 16.6c0-4-3.3-6.3-9.7-6.3h-11.6v13h12.3c5.6 0 9-2.4 9-6.5v-.2z"/><path id="XMLID_64_" class="st0" d="M337.5 19h4.1v32.9h20.7v3.8h-24.8z"/><path id="XMLID_63_" class="st0" d="M380.2 19h26.5v3.8h-22.4v12.5h20v3.8h-20v12.8H407v3.8h-26.8z"/><path id="XMLID_60_" class="st1" d="M437.6 18.7h7.4l15.7 36.9h-8.4l-3.4-8.2h-15.5l-3.4 8.2h-8.2l15.8-36.9zm8.5 21.6-4.9-11.9-4.9 11.9h9.8z"/><path id="XMLID_59_" class="st1" d="M477.2 19h8.1v36.7h-8.1z"/><path id="XMLID_58_" d="M72.7 20.6 37 43.1 1.3 20.6c.8-1.4 1.9-2.5 3.4-3.3L32.6 1.1c2.8-1.5 6.3-1.5 9.1.1l27.7 16c1.4.9 2.5 2 3.3 3.4" style="fill:#5fcffd"/><path id="XMLID_57_" class="st1" d="M63.1 26.1 37 43.1l-26.2-17c1.7-2.8 4.1-5.1 7-6.9l9.6-5.6c5.9-3.4 13.3-3.4 19.2 0l9.6 5.6c3 1.7 5.3 4.1 6.9 6.9"/><path id="XMLID_56_" d="M52.6 32.2 37 43.1 21.4 32.2c3.1-5.3 8.9-8.9 15.6-8.9 6.7 0 12.5 3.6 15.6 8.9" style="fill:#2a48ff"/><g id="XMLID_54_"><defs><path id="SVGID_1_" d="M0 25.2v32.1c0 3.1 1.5 5.9 4 7.6l17.4 10c.4.2.8-.1.8-.5V49.8l.1.1L36.5 58c.3.2.8.2 1.1 0l14.2-8.2v24.7c0 .4.5.7.8.5l17.2-9.9c2.6-1.7 4.2-4.6 4.2-7.8v-32c0-1.7-.4-3.3-1.3-4.6L37 41.2 1.3 20.6C.5 22 0 23.6 0 25.2"/></defs><clipPath id="SVGID_2_"><use xlink:href="#SVGID_1_" style="overflow:visible"/></clipPath><linearGradient id="XMLID_89_" gradientUnits="userSpaceOnUse" x1="-378.974" y1="402.676" x2="-377.974" y2="402.676" gradientTransform="scale(54.3979) rotate(-90 12.88 -390.476)"><stop offset="0" style="stop-color:#cdced0"/><stop offset=".191" style="stop-color:#e1e2e3"/><stop offset=".424" style="stop-color:#f2f2f3"/><stop offset=".681" style="stop-color:#fcfcfc"/><stop offset="1" style="stop-color:#fff"/></linearGradient><path id="XMLID_55_" style="-webkit-clip-path:url(#SVGID_2_);clip-path:url(#SVGID_2_);fill:url(#XMLID_89_)" d="M0 20.6h74v54.5H0z"/></g></g></svg>