<svg width="20" height="22" viewBox="0 0 20 22" fill="none" xmlns="http://www.w3.org/2000/svg">
<path fill-rule="evenodd" clip-rule="evenodd" d="M6.49903 5.5838C6.49903 3.46166 8.21937 1.74133 10.3415 1.74133C12.4637 1.74133 14.184 3.46166 14.184 5.5838C14.184 7.70594 12.4637 9.42628 10.3415 9.42628C8.21937 9.42628 6.49903 7.70594 6.49903 5.5838ZM10.3415 0.495117C7.53111 0.495117 5.25282 2.7734 5.25282 5.5838C5.25282 8.39421 7.53111 10.6725 10.3415 10.6725C13.1519 10.6725 15.4302 8.39421 15.4302 5.5838C15.4302 2.7734 13.1519 0.495117 10.3415 0.495117ZM5.87579 13.8923C4.52619 13.8923 3.23186 14.4284 2.27755 15.3827C1.32324 16.337 0.787109 17.6313 0.787109 18.9809V21.2137C0.787109 21.5579 1.06608 21.8368 1.41021 21.8368C1.75434 21.8368 2.03332 21.5579 2.03332 21.2137V18.9809C2.03332 17.9619 2.43815 16.9845 3.15875 16.2639C3.87936 15.5433 4.85671 15.1385 5.87579 15.1385H14.807C15.826 15.1385 16.8034 15.5433 17.524 16.2639C18.2446 16.9845 18.6494 17.9619 18.6494 18.9809V21.2137C18.6494 21.5579 18.9284 21.8368 19.2725 21.8368C19.6167 21.8368 19.8956 21.5579 19.8956 21.2137V18.9809C19.8956 17.6313 19.3595 16.337 18.4052 15.3827C17.4509 14.4284 16.1566 13.8923 14.807 13.8923H5.87579Z" fill="white"/>
</svg>
